<svg xmlns="http://www.w3.org/2000/svg" viewBox="0 0 330 330"><title>favicon</title><path d="M323.67,159.45q-3.18,5.25-8.73,15.87a142.19,142.19,0,0,1-6.18,14,2.94,2.94,0,0,1-2.54,1.43q.15,0-15.32-5.64t-25.47-5.63q-29.19,0-29.2,25.71,0,14.28,20.47,24.91Q291.14,248,294.79,250.7q20.47,16.35,20.47,44.12,0,35.55-28.09,56-25.23,18.41-62,18.4-17.15,0-18.41-3.8-.65-6-2.86-17.62-1.28-4.76-4-14.28a8.72,8.72,0,0,1-.47-2.7c0-1.48.79-2.22,2.38-2.22q3.81,0,11.66.79t11.82.8q49.2,0,49.2-31.74,0-15.56-19.84-27-36.18-20.62-37-21.42-20-16.19-20-43.48,0-29.52,19.36-47.29,18.89-17.15,48.88-17.14,12.69,0,29.2,4.12,17.92,4.6,27,11.11A7.23,7.23,0,0,1,323.67,159.45Z" transform="translate(-91 -91)" style="fill:#27ab78"/><circle cx="165" cy="165" r="158.5" style="fill:none;stroke:#27ab78;stroke-miterlimit:10;stroke-width:13px"/></svg>