<svg width="800" height="603" viewBox="0 0 800 603" fill="none" xmlns="http://www.w3.org/2000/svg">
<path fill-rule="evenodd" clip-rule="evenodd" d="M140 0H660L800 143.5L400 603L0 143.5L140 0ZM65 142.5L400 519.5L734 142.5L639 43.5H164L65 142.5Z" fill="#2A7DE9"/>
<path d="M645 146.432V49.1889L638.503 41H244.681L242.182 42.5354C145.725 85.5271 126.567 171.51 129.233 215.014L171.714 263.124C191.305 278.273 295.824 284.108 345.635 285.131C484.772 288.407 556.04 296.391 556.04 325.564C561.038 369.068 442.425 375.55 391.614 375.209C342.137 302.533 258.674 327.1 250.678 355.249L298.157 410.012C386.117 429.256 473.078 416.324 505.563 407.453L633.006 258.006C628.607 233.03 590.191 208.702 571.533 199.66C553.541 190.618 490.47 173.865 382.119 179.188C273.768 184.51 242.015 144.897 239.683 124.424C235.851 98.6635 257.875 46.7322 376.621 45.0944C495.368 43.4567 527.72 111.97 529.052 146.432H645Z" fill="#2A7DE9"/>
</svg>
